<?xml version="1.0" standalone="no"?><svg xmlns="http://www.w3.org/2000/svg" viewBox="0 0 1440 320"><path fill="#273036" fill-opacity="1" d="M0,64L21.8,64C43.6,64,87,64,131,90.7C174.5,117,218,171,262,165.3C305.5,160,349,96,393,101.3C436.4,107,480,181,524,208C567.3,235,611,213,655,218.7C698.2,224,742,256,785,277.3C829.1,299,873,309,916,288C960,267,1004,213,1047,186.7C1090.9,160,1135,160,1178,170.7C1221.8,181,1265,203,1309,213.3C1352.7,224,1396,224,1418,224L1440,224L1440,0L1418.2,0C1396.4,0,1353,0,1309,0C1265.5,0,1222,0,1178,0C1134.5,0,1091,0,1047,0C1003.6,0,960,0,916,0C872.7,0,829,0,785,0C741.8,0,698,0,655,0C610.9,0,567,0,524,0C480,0,436,0,393,0C349.1,0,305,0,262,0C218.2,0,175,0,131,0C87.3,0,44,0,22,0L0,0Z"></path></svg>